<svg width="36" height="36" viewBox="3 3 42 42" fill="none" xmlns="http://www.w3.org/2000/svg">
<circle cx="23" cy="24" r="18" fill="#C83538"/>
    <path xmlns="http://www.w3.org/2000/svg" d="M32.7791 31.6716C32.7791 31.6716 31.5381 32.8769 31.2339 33.2303C30.7385 33.7531 30.1548 34 29.3896 34C29.316 34 29.2375 34 29.164 33.9952C27.7071 33.9032 26.3533 33.3417 25.3379 32.8624C22.5616 31.5361 20.1237 29.653 18.0978 27.2665C16.4252 25.2769 15.3068 23.4375 14.5661 21.4624C14.1099 20.2571 13.9431 19.318 14.0167 18.4321C14.0658 17.8657 14.2865 17.3962 14.6936 16.9944L16.3663 15.3437C16.6067 15.121 16.8617 15 17.1119 15C17.4209 15 17.6711 15.1839 17.8281 15.3389C17.833 15.3437 17.8379 15.3485 17.8428 15.3534C18.142 15.6293 18.4265 15.9149 18.7257 16.2199C18.8778 16.3748 19.0347 16.5297 19.1917 16.6894L20.5308 18.011C21.0508 18.5241 21.0508 18.9985 20.5308 19.5116C20.3886 19.652 20.2512 19.7924 20.109 19.9279C19.6969 20.3442 20.0206 20.0248 19.5939 20.4024C19.584 20.412 19.5742 20.4169 19.5693 20.4266C19.1475 20.8429 19.226 21.2495 19.3143 21.5254C19.3192 21.5399 19.3241 21.5545 19.329 21.569C19.6772 22.4016 20.1678 23.1858 20.9134 24.1201L20.9183 24.1249C22.2721 25.7708 23.6995 27.0536 25.2741 28.0362C25.4752 28.1621 25.6812 28.2638 25.8774 28.3606C26.054 28.4477 26.2208 28.53 26.363 28.6171C26.3826 28.6268 26.4023 28.6413 26.4219 28.651C26.5887 28.7333 26.7456 28.772 26.9075 28.772C27.3146 28.772 27.5697 28.5203 27.6531 28.438L28.6146 27.4892C28.7813 27.3246 29.0462 27.1261 29.3553 27.1261C29.6594 27.1261 29.9095 27.3149 30.0616 27.4795C30.0665 27.4843 30.0665 27.4843 30.0714 27.4892L32.7742 30.1564C33.2794 30.6502 32.7791 31.6716 32.7791 31.6716Z" fill="white"/>
</svg>
