<svg width="16" height="18" viewBox="0 0 16 18" fill="none" xmlns="http://www.w3.org/2000/svg">
<path d="M8.00001 4.57143C7.54794 4.57143 7.10602 4.70548 6.73014 4.95664C6.35425 5.2078 6.06129 5.56478 5.88829 5.98244C5.71528 6.4001 5.67002 6.85968 5.75821 7.30306C5.84641 7.74645 6.0641 8.15372 6.38377 8.47339C6.70343 8.79305 7.1107 9.01074 7.55409 9.09894C7.99747 9.18713 8.45705 9.14187 8.87471 8.96887C9.29237 8.79587 9.64935 8.5029 9.90051 8.12702C10.1517 7.75113 10.2857 7.30921 10.2857 6.85714C10.2857 6.25093 10.0449 5.66955 9.61625 5.2409C9.1876 4.81224 8.60622 4.57143 8.00001 4.57143ZM8.00001 8C7.77397 8 7.55301 7.93297 7.36507 7.80739C7.17713 7.68181 7.03065 7.50332 6.94415 7.29449C6.85765 7.08566 6.83501 6.85587 6.87911 6.63418C6.92321 6.41249 7.03206 6.20885 7.19189 6.04902C7.35172 5.88919 7.55536 5.78034 7.77705 5.73624C7.99874 5.69215 8.22853 5.71478 8.43736 5.80128C8.64619 5.88778 8.82468 6.03426 8.95026 6.22221C9.07584 6.41015 9.14287 6.63111 9.14287 6.85714C9.14287 7.16025 9.02246 7.45094 8.80813 7.66526C8.5938 7.87959 8.30311 8 8.00001 8Z" fill="#A8A8A8"/>
<path d="M8.00001 14.8571C7.52146 14.8596 7.0493 14.7467 6.62305 14.528C6.19679 14.3093 5.82886 13.9911 5.55005 13.6001C3.38425 10.5963 2.28572 8.33824 2.28572 6.88807C2.28572 5.36435 2.88776 3.90303 3.9594 2.82559C5.03103 1.74815 6.48448 1.14286 8.00001 1.14286C9.51553 1.14286 10.969 1.74815 12.0406 2.82559C13.1123 3.90303 13.7143 5.36435 13.7143 6.88807C13.7143 8.33824 12.6158 10.5963 10.45 13.6001C10.1712 13.9911 9.80322 14.3093 9.37697 14.528C8.95072 14.7467 8.47855 14.8596 8.00001 14.8571ZM8.00001 2.39018C6.81363 2.39154 5.67623 2.86598 4.83733 3.70942C3.99843 4.55286 3.52654 5.69642 3.52519 6.88922C3.52519 8.03769 4.60099 10.1615 6.55368 12.8693C6.71945 13.0988 6.93692 13.2857 7.18831 13.4145C7.43969 13.5434 7.71785 13.6105 8.00001 13.6105C8.28217 13.6105 8.56032 13.5434 8.81171 13.4145C9.06309 13.2857 9.28057 13.0988 9.44634 12.8693C11.399 10.1615 12.4748 8.03769 12.4748 6.88922C12.4735 5.69642 12.0016 4.55286 11.1627 3.70942C10.3238 2.86598 9.18639 2.39154 8.00001 2.39018Z" fill="#A8A8A8"/>
</svg>
