<?xml version="1.0" encoding="UTF-8"?>
<!DOCTYPE svg PUBLIC "-//W3C//DTD SVG 1.1//EN" "http://www.w3.org/Graphics/SVG/1.1/DTD/svg11.dtd">
<!-- Creator: CorelDRAW -->
<svg xmlns="http://www.w3.org/2000/svg" xml:space="preserve" width="47.8605mm" height="47.8605mm" version="1.1" style="shape-rendering:geometricPrecision; text-rendering:geometricPrecision; image-rendering:optimizeQuality; fill-rule:evenodd; clip-rule:evenodd"
viewBox="0 0 609.46 609.46"
 xmlns:xlink="http://www.w3.org/1999/xlink"
 xmlns:xodm="http://www.corel.com/coreldraw/odm/2003">
 <defs>
  <style type="text/css">
   <![CDATA[
    .fil0 {fill:#d81c34}
   ]]>
  </style>
 </defs>
 <g id="Слой_x0020_1">
  <metadata id="CorelCorpID_0Corel-Layer"/>
  <path class="fil0" d="M-0 297.18c0.01,31.83 1.05,50.26 8.66,80.56 12,47.79 32.91,87.96 64.66,125.49l34.98 34.49c13.72,11.6 34.07,26.47 49.34,34.16 8.84,4.45 14.83,8.03 24.94,12.24l20.02 8.01c4.72,1.82 9.16,3 13.84,4.45 25.54,7.9 53.43,12.21 81.5,12.87l15.23 0c32.47,-0.77 64.66,-6.44 93.26,-17.15 4.21,-1.58 8.81,-3.18 13.24,-5.04 23.64,-9.96 39.19,-18.5 60.23,-33.02l25.87 -20.45 19.15 -18.03c1.74,-1.81 2.35,-3.02 4.25,-4.89 12.45,-12.29 31.37,-39.1 39.44,-53.2 4.62,-8.08 8.99,-15.95 12.65,-24.52 1.04,-2.42 1.78,-3.63 2.88,-6.27 0.95,-2.28 1.87,-4.33 2.77,-6.37 5.11,-11.55 10.67,-29.83 13.79,-42.28 5.31,-21.21 8.23,-43.47 8.78,-65.89l0 -15.34c-0.9,-37.17 -8.31,-74.24 -22.2,-107.2 -5.77,-13.7 -11.3,-24.77 -18.45,-37.62 -12.47,-22.42 -33.98,-49.28 -53.05,-67.63 -1.81,-1.74 -3.02,-2.35 -4.89,-4.25 -3.3,-3.34 -6.12,-5.53 -9.72,-8.57 -13.6,-11.51 -27.97,-21.99 -43.49,-30.87 -2,-1.14 -3.7,-2.21 -5.85,-3.29 -2.44,-1.23 -3.65,-2.03 -5.9,-3.25 -4.4,-2.37 -8.07,-4.11 -12.77,-6.12l-26.29 -10.89c-6.66,-2.57 -21.34,-6.72 -28.63,-8.55 -10.35,-2.59 -19.83,-4.32 -31.18,-5.99 -10.22,-1.5 -20.71,-2.42 -31.34,-2.78l-20.71 0c-36.54,1.22 -73.5,8.84 -105.2,22.2 -32.05,13.51 -57.41,28.99 -83.57,51.12l-12.23 10.93c-18.84,17.42 -45.53,51.74 -56.43,73.39 -4.45,8.84 -8.03,14.83 -12.24,24.94l-8.01 20.02c-2.57,6.66 -6.72,21.34 -8.55,28.63 -4.74,18.92 -8.77,45.26 -8.78,65.52l0 0.43zm426.35 -113.54c-16.46,1.81 -57.45,19.45 -74.4,26.3 -71.35,28.81 -141.71,60.82 -212.55,90.95 -8.35,3.55 -31.35,12.49 -22.32,23.88 6.03,7.6 24.46,11.42 35.59,15 11.31,3.64 28.74,8.95 41.13,9.7 15.38,0.94 27.84,-7.37 37.13,-13.71 20.06,-13.69 40.06,-26.93 60.53,-40.65 20.15,-13.51 40.23,-27.21 61.03,-40.13 12.33,-7.66 14.25,1.34 11.06,5.54 -6.38,8.4 -29.9,30.46 -37.87,37.74l-51.97 49.19c-29.5,27.6 -9.85,34.02 18.38,53.39 18.28,12.55 43.6,28.67 60.35,40.82 7.83,5.68 20.87,15.47 33.95,15.96 15.48,0.59 20.65,-12.85 24.01,-26.49 4.34,-17.65 11.9,-65.42 15.31,-85.83 6.9,-41.37 15.19,-90.29 19.67,-132.08 1.81,-16.92 1.26,-31.82 -19.03,-29.6z"/>
 </g>
</svg>
