<svg width="16" height="16" viewBox="0 0 16 16" fill="none" xmlns="http://www.w3.org/2000/svg">
<g clip-path="url(#clip0_163_92)">
<path d="M10.0409 10.5201C10.5649 10.6948 11.1312 10.4116 11.3058 9.88766C11.4805 9.36371 11.1973 8.79739 10.6734 8.62274L10.0409 10.5201ZM8.00001 8.78571H7.00001C7.00001 9.21614 7.27544 9.59828 7.68378 9.7344L8.00001 8.78571ZM9.00001 5.50029C9.00001 4.948 8.55229 4.50029 8.00001 4.50029C7.44772 4.50029 7.00001 4.948 7.00001 5.50029H9.00001ZM10.6734 8.62274L8.31624 7.83703L7.68378 9.7344L10.0409 10.5201L10.6734 8.62274ZM9.00001 8.78571V5.50029H7.00001V8.78571H9.00001ZM13.2857 8C13.2857 10.9192 10.9192 13.2857 8.00001 13.2857V15.2857C12.0238 15.2857 15.2857 12.0238 15.2857 8H13.2857ZM8.00001 13.2857C5.08079 13.2857 2.71429 10.9192 2.71429 8H0.714294C0.714294 12.0238 3.97622 15.2857 8.00001 15.2857V13.2857ZM2.71429 8C2.71429 5.08078 5.08079 2.71428 8.00001 2.71428V0.714285C3.97622 0.714285 0.714294 3.97621 0.714294 8H2.71429ZM8.00001 2.71428C10.9192 2.71428 13.2857 5.08078 13.2857 8H15.2857C15.2857 3.97621 12.0238 0.714285 8.00001 0.714285V2.71428Z" fill="#A8A8A8"/>
</g>
<defs>
<clipPath id="clip0_163_92">
<rect width="16" height="16" fill="white"/>
</clipPath>
</defs>
</svg>
