<?xml version="1.0" encoding="UTF-8"?>
<!DOCTYPE svg PUBLIC "-//W3C//DTD SVG 1.1//EN" "http://www.w3.org/Graphics/SVG/1.1/DTD/svg11.dtd">
<!-- Creator: CorelDRAW -->
<svg xmlns="http://www.w3.org/2000/svg" xml:space="preserve" width="51.0091mm" height="50.9709mm" version="1.1" style="shape-rendering:geometricPrecision; text-rendering:geometricPrecision; image-rendering:optimizeQuality; fill-rule:evenodd; clip-rule:evenodd"
viewBox="0 0 519.37 518.99"
 xmlns:xlink="http://www.w3.org/1999/xlink"
 xmlns:xodm="http://www.corel.com/coreldraw/odm/2003">
 <defs>
  <style type="text/css">
   <![CDATA[
    .fil0 {fill:white}
   ]]>
  </style>
 </defs>
 <g id="Слой_x0020_1">
  <metadata id="CorelCorpID_0Corel-Layer"/>
  <path class="fil0" d="M127.04 307.67c-3.3,-18.25 -0.69,-96.58 4.33,-114.2 10.3,-36.22 49.81,-34.58 79.91,-38.61 28.66,-3.84 86.36,-1.63 115.33,1.72 36.81,4.26 65.1,9.52 67.18,54.03 7.66,163.53 -1.4,158.67 -199.4,150.91 -39.93,-1.56 -60.15,-14.11 -67.35,-53.86zm132.14 -307.67c14.14,0 28,1.15 41.53,3.33 110.69,16.53 203.83,108.12 216.84,223.62 12.35,109.69 -38.86,204.86 -126.07,255.14 -27.99,16.65 -59.38,28.19 -92.89,33.3 -1.2,0.21 -2.4,0.43 -3.6,0.63 -34.82,5.67 -69.53,3.03 -102.24,-6.26 -110.95,-29.34 -192.75,-130.4 -192.75,-250.57 0,-143.14 116.04,-259.18 259.18,-259.18zm-24.39 291.51c12.02,-0.01 70.03,-23.83 70.03,-32.32 0,-8.07 -26.68,-16.4 -32.29,-18.89 -15.55,-6.92 -19.79,-13.42 -37.75,-13.43 -5,20.89 -2.2,22.91 -1.6,41.21 0.45,13.67 -2.7,5.62 1.6,23.44z"/>
 </g>
</svg>
