<svg xmlns="http://www.w3.org/2000/svg" width="12" height="12" viewBox="0 0 12 12" fill="none">
    <circle cx="6" cy="6" r="5.5" fill="white" stroke="#A8A8A8"/>
    <path d="M 8.9302 8.2647 C 8.9302 8.2647 8.5383 8.6454 8.4423 8.7569 C 8.2858 8.922 8.1015 9 7.8599 9 C 7.8366 9 7.8118 9 7.7886 8.9985 C 7.3286 8.9694 6.901 8.7921 6.5804 8.6408 C 5.7036 8.2219 4.9338 7.6273 4.2941 6.8736 C 3.7658 6.2454 3.4127 5.6645 3.1788 5.0408 C 3.0347 4.6601 2.982 4.3636 3.0053 4.0838 C 3.0208 3.905 3.0905 3.7567 3.219 3.6298 L 3.7473 3.1085 C 3.8232 3.0382 3.9037 3 3.9827 3 C 4.0803 3 4.1593 3.0581 4.2089 3.107 C 4.2104 3.1085 4.212 3.1101 4.2135 3.1116 C 4.308 3.1987 4.3978 3.2889 4.4923 3.3852 C 4.5404 3.4341 4.5899 3.4831 4.6395 3.5335 L 5.0624 3.9508 C 5.2266 4.1129 5.2266 4.2627 5.0624 4.4247 C 5.0174 4.469 4.9741 4.5134 4.9291 4.5562 C 4.799 4.6876 4.9013 4.5868 4.7665 4.706 C 4.7634 4.7091 4.7603 4.7106 4.7587 4.7136 C 4.6255 4.8451 4.6503 4.9735 4.6782 5.0607 C 4.6797 5.0652 4.6813 5.0698 4.6828 5.0744 C 4.7928 5.3373 4.9477 5.585 5.1832 5.88 L 5.1847 5.8815 C 5.6122 6.4013 6.063 6.8064 6.5602 7.1167 C 6.6237 7.1564 6.6888 7.1885 6.7508 7.2191 C 6.8065 7.2466 6.8592 7.2726 6.9041 7.3002 C 6.9103 7.3032 6.9165 7.3078 6.9227 7.3109 C 6.9754 7.3368 7.0249 7.3491 7.0761 7.3491 C 7.2046 7.3491 7.2852 7.2696 7.3115 7.2436 L 7.6151 6.944 C 7.6678 6.892 7.7514 6.8293 7.849 6.8293 C 7.9451 6.8293 8.0241 6.8889 8.0721 6.9409 C 8.0736 6.9424 8.0736 6.9424 8.0752 6.944 L 8.9287 7.7862 C 9.0882 7.9422 8.9302 8.2647 8.9302 8.2647 Z" fill="#A8A8A8"/>
</svg>
