<?xml version="1.0" encoding="UTF-8"?>
<!DOCTYPE svg PUBLIC "-//W3C//DTD SVG 1.1//EN" "http://www.w3.org/Graphics/SVG/1.1/DTD/svg11.dtd">
<!-- Creator: CorelDRAW -->
<svg xmlns="http://www.w3.org/2000/svg" xml:space="preserve" width="50.9238mm" height="50.91mm" version="1.1" style="shape-rendering:geometricPrecision; text-rendering:geometricPrecision; image-rendering:optimizeQuality; fill-rule:evenodd; clip-rule:evenodd"
viewBox="0 0 517.64 517.5"
 xmlns:xlink="http://www.w3.org/1999/xlink"
 xmlns:xodm="http://www.corel.com/coreldraw/odm/2003">
 <defs>
  <style type="text/css">
   <![CDATA[
    .fil0 {fill:white}
   ]]>
  </style>
 </defs>
 <g id="Слой_x0020_1">
  <metadata id="CorelCorpID_0Corel-Layer"/>
  <path class="fil0" d="M296.89 326.06c2.86,21.53 69.97,49.06 40.95,75.9 -29.54,27.32 -53.14,-32.64 -79.24,-38.89 -23.19,6.28 -45.71,65.96 -77.03,39.39 -27.4,-23.24 29.86,-55.91 42.3,-74.58 -9.76,-7.59 -74.3,-19.87 -50.94,-53.13 11.04,-15.71 28.94,-6.42 40.45,-0.92 74.71,35.69 105.41,-26.97 130.74,-1.66 31.36,31.34 -44.22,51.76 -47.24,53.89zm-38.14 -326.06c13.47,0 26.69,1.03 39.61,3.01 114.63,15.62 207.24,111.39 218.16,231.36 6.96,76.51 -18.73,146.6 -65.79,197.85 -47.35,52.36 -115.82,85.27 -191.97,85.27 -142.9,0 -258.75,-115.85 -258.75,-258.75 0,-70.82 28.46,-134.99 74.56,-181.71 24.62,-25.67 50.01,-42.75 78.06,-54.34 32.39,-14.58 68.31,-22.7 106.13,-22.7zm80.52 193.65c-5.6,28.19 -5.42,29.83 -27.48,50.5 -49.69,46.57 -144.19,1.54 -132.94,-68.27 17.57,-109.01 178.54,-73.49 160.42,17.77zm-91.89 -37.42c-42.71,17.51 -15.97,74.05 24.5,58.84 41.66,-15.67 16.77,-75.76 -24.5,-58.84z"/>
 </g>
</svg>
