<svg xmlns="http://www.w3.org/2000/svg" width="477" height="474" viewBox="0 0 477 474" fill="none">
<path fill-rule="evenodd" clip-rule="evenodd" d="M139.728 247.279L225.984 333.535C207.206 345.217 148.649 377.102 129.123 387.809L56.3002 428.581C51.8917 431.056 48.8874 432.876 44.2809 435.456C40.3604 437.651 34.7633 440.054 31.5549 443.123L30.1406 441.709C33.764 437.92 123.906 275.867 136.021 253.642C136.742 252.32 139.245 248.543 139.728 247.279ZM49.937 451.607L143.97 398.581C159.556 389.801 174.741 381.366 190.634 372.517L238.004 345.554L314.361 421.912C312.076 422.364 309.229 422.505 306.585 422.805C303.622 423.14 301.163 423.402 298.1 423.708L49.937 451.607ZM21.6563 423.326L28.8222 357.574C31.5288 335.052 33.7893 313.464 36.3178 291.114L51.3509 158.902L127.709 235.26C124.9 238.578 123.083 242.763 120.945 246.572C118.895 250.225 116.497 254.649 114.276 258.591L21.6563 423.326ZM343.349 323.637C344.248 328.177 328.101 408.848 327.088 410.6L257.093 340.605C271.585 337.737 285.456 335.216 300.221 332.261L332.037 326.182C336.486 325.287 340.881 325.064 343.349 323.637ZM245.781 226.069L247.195 227.483C245.224 230.89 232.293 303.292 230.226 313.739L159.525 243.036L234.469 228.896C237.747 228.241 242.758 227.817 245.781 226.069ZM149.627 129.914C147.719 133.211 144.265 156.827 143.269 161.729L132.658 216.17L62.6634 146.175C65.252 144.678 100.007 138.355 105.792 137.249L138.314 131.323C142.08 130.683 145.846 129.166 149.627 129.914ZM245.781 326.465L244.367 325.051C246.018 322.196 246.663 316.85 247.19 313.739L262.749 233.138L337.693 308.082L315.069 312.606C311.015 313.417 307.808 314.053 303.756 314.872L269.112 321.3C265.112 321.891 248.47 324.909 245.781 326.465ZM165.181 135.57L240.125 210.514C229.695 213.726 217.045 215.137 206.188 217.288C199.156 218.68 151.416 227.043 148.213 228.896C147.245 224.004 158.877 167.083 160.513 158.902L165.181 135.57ZM2.56701 470.696C5.70288 473.832 8.95706 473.419 12.4652 472.949L317.897 438.173C346.148 434.704 338.075 441.851 349.006 387.268C350.123 381.688 350.785 376.849 351.971 371.007C354.178 360.138 355.775 350.595 357.915 339.898C358.99 334.524 360.142 329.518 361.02 324.344C362.332 316.605 364.395 312.159 360.318 308.082L165.181 112.946C160.809 108.573 156.052 111.194 151.04 112.108L49.9374 131.187C45.2046 132.117 39.363 132.1 37.3587 137.624L35.5339 152.538C34.4775 162.581 33.3773 171.442 32.1656 181.526L2.66264 441.709C2.04695 446.833 1.40442 450.798 0.885117 455.849C0.395668 460.607 -1.54285 466.586 2.56701 470.696Z" fill="#FEFEFE"/>
<path fill-rule="evenodd" clip-rule="evenodd" d="M314.729 127.522C315.051 127.538 315.389 127.468 315.695 127.571C328.214 131.806 340.493 132.253 352.562 129.433L353.156 129.684L353.632 130.096C352.339 128.976 349.658 156.39 354.625 167.621C354.711 167.814 354.716 168.004 354.766 168.145L354.786 168.201C355.331 169.717 313.425 163.626 313.709 168.578C314 173.646 321.869 136.792 314.729 127.522ZM297.238 108.752C288.799 117.191 293.621 116.716 297.567 131C301.036 143.557 298.788 158.002 294.234 169.001C291.539 175.509 286.183 180.949 293.761 188.527C305.521 200.287 319.433 175.252 352.195 184.983C359.347 187.108 365.914 192.67 371.871 186.715C380.304 178.281 366.05 171.387 368.341 148.247C371.422 117.128 385.3 120.222 371.775 106.697C363.023 97.9453 349.748 120.896 316.129 112.024C308.732 110.071 301.028 104.962 297.238 108.752Z" fill="#FEFEFE"/>
<path fill-rule="evenodd" clip-rule="evenodd" d="M413.823 343.833C414.145 343.848 414.483 343.778 414.788 343.881C427.308 348.116 439.587 348.564 451.656 345.743L452.25 345.994L452.726 346.406C451.433 345.287 448.752 372.7 453.719 383.931C453.804 384.125 453.809 384.314 453.86 384.455L453.88 384.512C454.424 386.028 412.519 379.936 412.803 384.888C413.094 389.956 420.962 353.103 413.823 343.833ZM396.331 325.062C387.893 333.501 392.715 333.026 396.661 347.31C400.129 359.867 397.882 374.313 393.327 385.311C390.633 391.819 385.276 397.26 392.854 404.837C404.615 416.598 418.527 391.563 451.288 401.294C458.441 403.418 465.008 408.981 470.964 403.025C479.398 394.591 465.143 387.697 467.434 364.558C470.515 333.438 484.394 336.532 470.869 323.008C462.117 314.256 448.842 337.207 415.223 328.334C407.825 326.381 400.122 321.272 396.331 325.062Z" fill="#FEFEFE"/>
<path fill-rule="evenodd" clip-rule="evenodd" d="M104.256 22.853C104.578 22.8693 104.916 22.7986 105.222 22.9018C117.742 27.1368 130.02 27.5843 142.089 24.764L142.683 25.0149L143.159 25.4273C141.867 24.307 139.185 51.7211 144.153 62.9519C144.238 63.1454 144.243 63.3352 144.293 63.4762L144.313 63.5325C144.858 65.0484 102.953 58.9573 103.236 63.9093C103.528 68.9769 111.396 32.1231 104.256 22.853ZM86.7653 4.08315C78.3264 12.5221 83.1487 12.0466 87.0941 26.3306C90.563 38.8877 88.3153 53.3334 83.7613 64.3318C81.0669 70.8398 75.7098 76.2801 83.2878 83.858C95.0481 95.6184 108.961 70.5836 141.722 80.3147C148.874 82.4388 155.442 88.0015 161.398 82.0457C169.831 73.6121 155.577 66.7179 157.868 43.5785C160.949 12.459 174.827 15.5533 161.302 2.02821C152.551 -6.72366 139.275 16.2275 105.656 7.35471C98.2589 5.40183 90.5554 0.293038 86.7653 4.08315Z" fill="#FEFEFE"/>
</svg>
