<svg xmlns="http://www.w3.org/2000/svg" width="20" height="227" viewBox="0 0 20 227" fill="none">
    <path fill-rule="evenodd" clip-rule="evenodd" d="M8.93555 202.708H10.1484V226.967H8.93555V202.708Z" fill="#FEFEFE"/>
    <path fill-rule="evenodd" clip-rule="evenodd" d="M9.94312 154.447C14.8387 154.447 18.729 157.375 18.729 164.986C18.729 165.701 18.6939 171.315 18.6285 172.026C17.9928 178.922 14.3788 182.007 9.94312 182.007C5.50823 182.007 1.76574 178.925 1.10508 172.031C1.03705 171.318 1 165.702 1 164.986C1 157.375 5.04712 154.447 9.94312 154.447Z" stroke="#FEFEFE" stroke-width="1.33342" stroke-miterlimit="22.9256"/>
    <path fill-rule="evenodd" clip-rule="evenodd" d="M10.026 161.013C11.2668 161.013 12.2529 161.755 12.2529 163.683C12.2529 163.865 12.2438 165.287 12.2272 165.468C12.0662 167.215 11.1504 167.997 10.026 167.997C8.90232 167.997 7.95366 167.216 7.78623 165.469C7.76884 165.288 7.75977 163.865 7.75977 163.683C7.75977 161.755 8.78515 161.013 10.026 161.013Z" fill="#FEFEFE" stroke="#FEFEFE" stroke-width="0.755906" stroke-miterlimit="22.9256"/>
    <path d="M12.9166 137.429C12.9755 135.1 10.8715 134.675 8.37739 134.509L5.51669 134.32V131.447H12.9166V130.443H4.54759V135.278L7.7273 135.502C10.2097 135.656 11.971 135.809 11.9472 137.429H12.9166ZM12.9166 128.646V127.511L7.12446 123.847L6.17884 123.303V123.28L7.11239 123.327H12.9166V122.334H4.54759V123.397L10.458 127.098L11.4626 127.677V127.7L10.4459 127.653H4.54759V128.646H12.9166ZM13.0349 117.641C13.0349 116.459 12.4676 115.253 11.3443 114.686L10.9188 115.572C11.6637 115.986 12.0299 116.825 12.0299 117.641C12.0299 118.693 11.5099 119.745 10.458 119.745H7.00617C5.95395 119.745 5.4339 118.693 5.4339 117.641C5.4339 116.825 5.82396 115.986 6.5689 115.572L6.10779 114.686C4.98489 115.253 4.4293 116.435 4.4293 117.606C4.4293 119.178 5.28043 120.75 7.00617 120.75H10.458C12.172 120.75 13.0349 119.19 13.0349 117.641ZM12.9166 111.577V110.572H5.55219V107.948H4.54759V114.201H5.55219V111.577H12.9166ZM12.9166 102.463V101.411L4.54759 104.461V105.56L12.9166 108.61V107.534L10.458 106.659V103.373L12.9166 102.463ZM6.62785 105.335L5.55219 105.04V104.993L6.61614 104.709L9.45304 103.728V106.305L6.62785 105.335ZM3.7437 97.3327C3.7437 96.3281 3.10532 95.5008 1.98242 95.3942V96.2808C2.52592 96.3871 2.89254 96.7064 2.89254 97.3327C2.89254 97.9476 2.52592 98.2666 1.98242 98.3849V99.2716C3.10532 99.165 3.7437 98.3377 3.7437 97.3327ZM12.9166 100.442V99.3071L7.12446 95.6425L6.17884 95.0986V95.0752L7.11239 95.1224H12.9166V94.1295H4.54759V95.1931L10.458 98.8933L11.4626 99.4723V99.4961L10.4459 99.4489H4.54759V100.442H12.9166ZM14.5716 87.9587V86.942H12.9166V81.3627H14.5716V80.3581H11.9593V81.1737H4.54759V85.9374L7.45517 86.1264C10.3752 86.3275 11.7582 86.4692 11.9472 87.7104C11.9593 87.7932 11.9593 87.8759 11.9593 87.9587H14.5716ZM11.9593 86.103C11.3916 85.5591 10.198 85.2752 8.29464 85.1573L5.52876 84.968V82.1666H11.9593V86.103ZM12.9166 73.762V72.7102L4.54759 75.7599V76.859L12.9166 79.9091V78.8334L10.458 77.9584V74.6721L12.9166 73.762ZM6.62785 76.6345L5.55219 76.3389V76.2917L6.61614 76.0082L9.45304 75.0271V77.6039L6.62785 76.6345ZM12.9166 72.5091C12.9755 70.1806 10.8715 69.755 8.37739 69.5894L5.51669 69.4001V66.5277H12.9166V65.5231H4.54759V70.3578L7.7273 70.5823C10.2097 70.7361 11.971 70.8896 11.9472 72.5091H12.9166ZM7.78629 60.57V62.7217H4.54759V63.7263H12.9166V60.57C12.9166 58.9387 12.1482 57.7803 10.4104 57.7686C8.61399 57.7569 7.78629 58.7025 7.78629 60.57ZM11.9827 60.5583V62.7217H8.64915V60.5938C8.64915 59.3643 9.20473 58.7498 10.387 58.7498C11.5454 58.7498 11.9827 59.4709 11.9827 60.5583ZM4.54759 48.5601H11.9472V51.5154H4.54759V52.5203H11.9472V55.4873H4.54759V56.4801H12.9166V47.5673H4.54759V48.5601ZM5.55219 40.4512H4.54759V45.7822H12.9166V40.4512H11.912V44.7776H9.24026V40.7819H8.23566V44.7776H5.55219V40.4512Z" fill="#FEFEFE"/>
    <path fill-rule="evenodd" clip-rule="evenodd" d="M8.93555 0H10.1484V24.2593H8.93555V0Z" fill="#FEFEFE"/>
</svg>
