<?xml version="1.0" encoding="UTF-8"?>
<!DOCTYPE svg PUBLIC "-//W3C//DTD SVG 1.1//EN" "http://www.w3.org/Graphics/SVG/1.1/DTD/svg11.dtd">
<!-- Creator: CorelDRAW -->
<svg xmlns="http://www.w3.org/2000/svg" xml:space="preserve" width="50.9421mm" height="50.91mm" version="1.1" style="shape-rendering:geometricPrecision; text-rendering:geometricPrecision; image-rendering:optimizeQuality; fill-rule:evenodd; clip-rule:evenodd"
viewBox="0 0 518.04 517.71"
 xmlns:xlink="http://www.w3.org/1999/xlink"
 xmlns:xodm="http://www.corel.com/coreldraw/odm/2003">
 <defs>
  <style type="text/css">
   <![CDATA[
    .fil0 {fill:white}
   ]]>
  </style>
 </defs>
 <g id="Слой_x0020_1">
  <metadata id="CorelCorpID_0Corel-Layer"/>
  <path class="fil0" d="M216.49 177.38c12.05,-7.25 26.56,-5.38 42.35,-5.38 41.35,0 16.81,44.76 22.9,68.35 1.8,6.97 3.16,8.37 6.69,12.36 24.97,-2.25 40.84,-52.36 51.12,-72.64 16.61,0 45.63,-3.64 59.88,2 7.08,21.6 -45.46,61.39 -45.23,81.46 0.15,13.9 78.36,69.89 31.09,69.89l-32.28 0c-32.55,0 -31.59,-36.46 -59.42,-37.89 -17.93,13.51 -4.9,21.16 -16.6,37.2 -51.68,4.15 -78.83,-14.77 -108.89,-56.52 -11,-15.28 -51.82,-79.97 -47.15,-94.13 18.1,-3.8 31.62,-2.26 51.13,-1.72 14.4,20.18 22.97,65.4 49.33,72.59 14.12,-10.63 10.53,-19.86 10.53,-45.97 0,-23.94 -8.65,-17.15 -15.45,-29.59zm42.5 -177.38c17.79,0 35.15,1.8 51.93,5.21 47.86,9.39 91.65,32.9 126.5,66.11 0.34,0.33 0.68,0.66 1.02,0.99 1.11,1.07 2.22,2.15 3.32,3.24 0.53,0.53 1.06,1.08 1.59,1.62 0.9,0.92 1.81,1.83 2.7,2.76 0.59,0.62 1.17,1.25 1.76,1.88 0.84,0.89 1.68,1.78 2.5,2.69 0.5,0.55 0.99,1.11 1.49,1.66 0.92,1.02 1.83,2.05 2.74,3.08 0.32,0.37 0.63,0.74 0.94,1.1 1.08,1.26 2.15,2.52 3.21,3.8l0.24 0.29c31.46,38.15 52.45,85.46 57.73,137.21 3.25,31.85 0.66,62.67 -6.87,91.53 -28.6,111.84 -130.04,194.53 -250.8,194.53 -133.26,0 -242.99,-100.71 -257.27,-230.16 -0.14,-1.1 -0.29,-2.2 -0.42,-3.3 -1.51,-13.27 -1.7,-27.37 -0.64,-41.81 1.61,-25.74 6.98,-50.45 15.56,-73.61 10.78,-30.47 26.67,-58.65 46.84,-79.6 1.5,-1.56 2.98,-3.08 4.46,-4.58 9.03,-9.92 18.84,-19.13 29.3,-27.55 24.27,-20.56 47.17,-33.56 75.81,-42.33 27,-9.56 56.06,-14.77 86.34,-14.77z"/>
 </g>
</svg>
