<?xml version="1.0" encoding="UTF-8"?>
<!DOCTYPE svg PUBLIC "-//W3C//DTD SVG 1.1//EN" "http://www.w3.org/Graphics/SVG/1.1/DTD/svg11.dtd">
<!-- Creator: CorelDRAW -->
<svg xmlns="http://www.w3.org/2000/svg" xml:space="preserve" width="50.9291mm" height="50.91mm" version="1.1" style="shape-rendering:geometricPrecision; text-rendering:geometricPrecision; image-rendering:optimizeQuality; fill-rule:evenodd; clip-rule:evenodd"
viewBox="0 0 517.77 517.57"
 xmlns:xlink="http://www.w3.org/1999/xlink"
 xmlns:xodm="http://www.corel.com/coreldraw/odm/2003">
 <defs>
  <style type="text/css">
   <![CDATA[
    .fil0 {fill:#d81c34}
   ]]>
  </style>
 </defs>
 <g id="Слой_x0020_1">
  <metadata id="CorelCorpID_0Corel-Layer"/>
  <path class="fil0" d="M215.72 314.62l86.07 0c-1.64,18.47 -19.45,72.28 -43.03,72.28 -24.48,0 -40.33,-53.36 -43.03,-72.28zm43.18 -314.62c25.19,0 49.54,3.61 72.56,10.33 30.44,8.46 59.25,22.74 84.24,42.59 57.57,43.92 96.17,111.43 101.36,188.11 3.05,40.76 -3.89,81.25 -19.58,118.16 -0.23,0.56 -0.48,1.11 -0.72,1.66 -0.61,1.42 -1.22,2.85 -1.86,4.26 -40.56,89.89 -130.98,152.46 -236,152.46 -130,0 -237.6,-95.86 -256,-220.75 -0.76,-4.95 -1.4,-9.93 -1.88,-14.96 -1.31,-13.86 -1.35,-28.16 -0.18,-42.56 0.06,-0.76 0.13,-1.51 0.19,-2.27l0.03 -0.39c1.86,-21.98 6.48,-43.17 13.48,-63.24 10.91,-32.05 27.74,-61.9 49.81,-85.45 0.94,-1 1.88,-2 2.81,-2.98 7.2,-7.94 14.89,-15.42 23.01,-22.41 25.94,-23.15 50.56,-37.52 79.62,-46.82 27.78,-10.19 57.79,-15.75 89.1,-15.75zm34.81 381.86c11.06,-16.91 23.79,-47.67 24.21,-67.24l56.48 0c-14.4,31.25 -46.84,59.18 -80.69,67.24zm-150.61 -67.24l56.48 0c0.41,19.57 13.14,50.33 24.21,67.24 -35.57,-8.47 -64.38,-35.31 -80.69,-67.24zm69.93 -96.82l91.44 0c0.21,10.05 1.8,9.66 2.55,18.97 1.78,22.22 -2.54,45.94 -2.55,61.72l-91.44 0c-0.01,-13.22 -2.73,-24.77 -2.73,-40.34 -0,-15.72 2.72,-27.18 2.73,-40.35zm107.58 0l61.86 0c1.23,13.83 5.42,25.17 5.58,40.33 0.14,13.48 -2.54,29.2 -6.04,39.9l-61.4 0.48c2.68,-30.13 4.42,-49.74 0,-80.71zm-123.72 80.69l-61.4 -0.04c-12.27,-38.96 -2.73,-55.22 -0.46,-80.65l61.86 0c-3.58,41.69 -3.72,38.86 0,80.69zm104.89 -96.82l-86.07 0c1.67,-18.86 19.27,-73.23 42.78,-72.49 24.83,0.77 41.51,52.59 43.28,72.49zm-8.07 -67.24c34.82,8.29 64.39,35.08 80.69,67.24l-56.48 0c-0.41,-19.39 -13.14,-50.47 -24.21,-67.24zm-94.13 67.24l-56.48 0c16.42,-32.41 45.51,-58.86 80.69,-67.24 -11.07,17.78 -23.77,46.78 -24.21,67.24z"/>
 </g>
</svg>
